<?xml version="1.0"?>
<svg xmlns="http://www.w3.org/2000/svg" height="512px" viewBox="0 -25 511.98215 511" width="512px" class=""><g><path d="m494.925781 411.660156v-266.101562c-.007812-1.121094-.230469-2.226563-.660156-3.261719-.425781-1.035156-1.050781-1.976563-1.839844-2.773437l-136.535156-136.53125c-.792969-.792969-1.738281-1.417969-2.773437-1.84375-1.035157-.429688-2.140626-.652344-3.257813-.65625h-187.734375c-1.121094.003906-2.226562.226562-3.261719.65625-1.035156.425781-1.976562 1.050781-2.773437 1.84375l-136.53125 136.53125c-1.601563 1.601562-2.5 3.769531-2.5 6.035156v266.101562c-11.746094 4.136719-18.796875 16.144532-16.6875 28.417969s12.765625 21.238281 25.21875 21.214844h460.800781c12.453125.023437 23.109375-8.941407 25.21875-21.214844 2.113281-12.273437-4.9375-24.28125-16.683594-28.417969zm-116.96875-285.667968c3.347657 3.234374 8.671875 3.1875 11.964844-.105469 3.289063-3.292969 3.335937-8.613281.101563-11.960938l-2.5-2.5h5c4.714843 0 8.535156-3.820312 8.535156-8.535156 0-4.710937-3.820313-8.53125-8.535156-8.53125h-22.066407l-14.566406-14.566406c-3.347656-3.234375-8.671875-3.1875-11.960937.101562-3.292969 3.292969-3.339844 8.613281-.105469 11.964844l2.5 2.5h-86.800781l-34.132813-34.136719h44.132813l14.566406 14.566406c3.351562 3.234376 8.671875 3.1875 11.964844-.101562 3.289062-3.292969 3.335937-8.613281.101562-11.960938l-2.5-2.503906h47.667969c4.714843 0 8.535156-3.820312 8.535156-8.53125 0-4.714844-3.820313-8.535156-8.535156-8.535156h-64.734375l-14.566406-14.566406c-3.347657-3.230469-8.667969-3.1875-11.960938.105468-3.292969 3.292969-3.339844 8.613282-.105469 11.960938l2.5 2.5h-44.132812l-25.601563-25.597656h163.601563l119.46875 119.464844h-163.601563l-25.601562-25.597657h86.800781zm-70.765625 28.097656h170.667969v256h-170.667969zm-273.066406-5 128-128 36.632812 36.632812 51.199219 51.203125 40.167969 40.164063v261h-85.332031v-102.398438c0-18.851562-15.285157-34.132812-34.136719-34.132812h-17.066406c-18.851563 0-34.132813 15.28125-34.132813 34.132812v102.398438h-85.332031zm153.597656 261h-51.199218v-102.398438c0-9.425781 7.640624-17.066406 17.066406-17.066406h17.066406c9.425781 0 17.066406 7.640625 17.066406 17.066406zm298.667969 34.132812h-460.800781c-4.710938 0-8.53125-3.820312-8.53125-8.53125 0-4.714844 3.820312-8.535156 8.53125-8.535156h460.800781c4.714844 0 8.535156 3.820312 8.535156 8.535156 0 4.710938-3.820312 8.53125-8.535156 8.53125zm0 0" data-original="#000000" class="active-path" data-old_color="#000000" fill="#E478AD"/><path d="m162.125 213.824219c28.277344 0 51.199219-22.921875 51.199219-51.199219s-22.921875-51.199219-51.199219-51.199219-51.199219 22.921875-51.199219 51.199219c.027344 28.265625 22.933594 51.171875 51.199219 51.199219zm-32.921875-42.667969h24.386719v24.390625c-11.941406-3.125-21.265625-12.449219-24.386719-24.390625zm41.453125 24.390625v-24.390625h24.390625c-3.125 11.941406-12.449219 21.265625-24.390625 24.390625zm24.390625-41.457031h-24.390625v-24.386719c11.941406 3.121094 21.265625 12.445313 24.390625 24.386719zm-41.457031-24.386719v24.386719h-24.386719c3.121094-11.941406 12.445313-21.265625 24.386719-24.386719zm0 0" data-original="#000000" class="active-path" data-old_color="#000000" fill="#E478AD"/><path d="m102.390625 341.824219v-42.667969c0-14.136719-11.460937-25.597656-25.597656-25.597656-14.140625 0-25.601563 11.460937-25.601563 25.597656v42.667969c-4.714844 0-8.535156 3.820312-8.535156 8.535156 0 4.710937 3.820312 8.53125 8.535156 8.53125h51.199219c4.714844 0 8.535156-3.820313 8.535156-8.53125 0-4.714844-3.820312-8.535156-8.535156-8.535156zm-34.132813 0v-42.667969c0-4.710938 3.820313-8.53125 8.535157-8.53125 4.710937 0 8.53125 3.820312 8.53125 8.53125v42.667969zm0 0" data-original="#000000" class="active-path" data-old_color="#000000" fill="#E478AD"/><path d="m221.859375 358.890625h51.199219c4.710937 0 8.53125-3.820313 8.53125-8.53125 0-4.714844-3.820313-8.535156-8.53125-8.535156v-42.667969c0-14.136719-11.460938-25.597656-25.601563-25.597656-14.136719 0-25.597656 11.460937-25.597656 25.597656v42.667969c-4.714844 0-8.535156 3.820312-8.535156 8.535156 0 4.710937 3.820312 8.53125 8.535156 8.53125zm17.066406-59.734375c0-4.710938 3.820313-8.53125 8.53125-8.53125 4.714844 0 8.535157 3.820312 8.535157 8.53125v42.667969h-17.066407zm0 0" data-original="#000000" class="active-path" data-old_color="#000000" fill="#E478AD"/><path d="m435.191406 290.625h-85.332031c-9.425781 0-17.066406 7.640625-17.066406 17.066406v68.265625c0 9.425781 7.640625 17.066407 17.066406 17.066407h85.332031c9.425782 0 17.066406-7.640626 17.066406-17.066407v-68.265625c0-9.425781-7.640624-17.066406-17.066406-17.066406zm0 42.667969h-34.132812v-25.601563h34.132812zm-51.199218-25.601563v25.601563h-34.132813v-25.601563zm-34.132813 42.667969h34.132813v25.597656h-34.132813zm51.199219 25.597656v-25.597656h34.132812v25.597656zm0 0" data-original="#000000" class="active-path" data-old_color="#000000" fill="#E478AD"/><path d="m435.191406 171.15625h-85.332031c-9.425781 0-17.066406 7.640625-17.066406 17.066406v68.269532c0 9.425781 7.640625 17.066406 17.066406 17.066406h85.332031c9.425782 0 17.066406-7.640625 17.066406-17.066406v-68.269532c0-9.425781-7.640624-17.066406-17.066406-17.066406zm0 42.667969h-34.132812v-25.601563h34.132812zm-51.199218-25.601563v25.601563h-34.132813v-25.601563zm-34.132813 42.667969h34.132813v25.601563h-34.132813zm51.199219 25.601563v-25.601563h34.132812v25.601563zm0 0" data-original="#000000" class="active-path" data-old_color="#000000" fill="#E478AD"/></g> </svg>
